<?xml version="1.0" encoding="utf-8"?>
<!-- Generator: Adobe Illustrator 27.3.1, SVG Export Plug-In . SVG Version: 6.00 Build 0)  -->
<svg version="1.1"
	 id="svg23" xmlns:svg="http://www.w3.org/2000/svg" xmlns:inkscape="http://www.inkscape.org/namespaces/inkscape" xmlns:sodipodi="http://sodipodi.sourceforge.net/DTD/sodipodi-0.dtd"
	 xmlns="http://www.w3.org/2000/svg" xmlns:xlink="http://www.w3.org/1999/xlink" x="0px" y="0px" viewBox="0 0 308.8 304.9"
	 style="enable-background:new 0 0 308.8 304.9;" xml:space="preserve">
<style type="text/css">
	.st0{fill:#FF4A3F;}
	.st1{fill:#FFFFFF;}
	.st2{font-family:'Nasalization';}
	.st3{font-size:140px;}
</style>
<sodipodi:namedview  bordercolor="#000000" borderopacity="0.25" id="namedview25" inkscape:deskcolor="#d1d1d1" inkscape:pagecheckerboard="0" inkscape:pageopacity="0.0" inkscape:showpageshadow="2" pagecolor="#ffffff">
	</sodipodi:namedview>
<g id="SvgjsG2685" transform="matrix(0.9820592540669653,0,0,0.9820592540669653,-0.054560523427421584,0)">
	<g id="g17">
		<path id="path3" class="st0" d="M57.6,44.6H59L57.9,44L57.6,44.6z M61.4,42.8c0,0.3,0,0.3,0.3,0.3l1.2-0.9
			C62.2,41.9,61.9,41.9,61.4,42.8z M50,50.7l0.9-0.6c0.3-0.3,0.3-0.6,0.3-0.6h-0.6L50,50.7C49.7,50.4,49.7,50.7,50,50.7z M56.4,42.2
			h-0.3l-0.6,0.6h0.9L56.4,42.2z M50.3,49.2l1.7-1.5c0.3-0.3,0.3-0.6,0.3-0.9h-0.9L48,50.1l-0.6,1.2l2-1.7L50.3,49.2z"/>
		<path id="path5" class="st0" d="M28.1,72.8v-0.6c0.2-1.3,1-2.4,2-3.2l2.6-1.7l1.5-1.7l2-2l1.2-1.2l1.2-0.9c1-0.6,1.9-1.5,2.3-2.6
			l1.2-1.5c1.1-1.1,2.1-2.4,2.9-3.8l0.6-0.9l0.9-0.6l-0.6-0.9l1.2-1.5c2.3-1.7,4.1-4.1,6.4-5.8l0.9-0.9c0.3-0.7,0.8-1.3,1.5-1.7
			l2.3-1.2h1.2c0.9-0.3,1.6-1,2-1.7v-0.6c0.9-1.7,2.2-3.1,3.8-4.1l2.3-1.5l0.6-0.6l1.2-1.2l2.9-1.5h0.6l-3.2,1.2L65.5,33
			c-1.7,1.5-4.1,1.7-5.2,4.1h0.9c-2,0.6-4.1,1.5-5,3.5c-0.9,2-2.3,1.7-3.5,2.6c-0.5,0.1-0.9,0.6-0.9,1.2c-2.3-0.3-3.2,1.5-4.4,2.6
			v2.3c-1.9,0.9-3.5,2.3-4.7,4.1C38,53.9,38,59.7,34,60.9h-0.3c-0.1,0.2-0.1,0.4,0,0.6c-0.9,0-1.5,0.6-1.2,1.5l-0.6,1.5
			c-2,1.2-1.7,3.2-2.9,5c-2.3,1.5-3.2,4.4-5,6.4l0.9,1.5l0.6-0.6C26.3,75.3,27.2,74,28.1,72.8z M156.9,9.6l1.7,0.6h0.6
			c1.3,0.6,2.7,0.8,4.1,0.6c1.8-0.3,3.7-0.2,5.5,0.3h3.5c1.2-0.3,2.5,0.1,3.5,0.9c0.1,0.1,0.1,0.2,0,0.3h-1.2
			c-0.1,0.1-0.1,0.2,0,0.3h2c1.2-0.5,2.6-0.5,3.8,0c0.6,0,0.3,0.3,0.6,0.6l1.5,0.6h-0.6c-0.6-1.2-1.5-1.2-2.3-1.2
			c-3.9-1.8-8.2-2.7-12.5-2.6h-2.3c-3.4-1-6.9-1.4-10.5-1.2h0.6L156.9,9.6z M178.1,18.6h0.6H178.1z M200,20.1c0.8,0.8,1.9,1,2.9,0.6
			h1.7c-1.5-1.2-3.3-1.9-5.2-2l-2-0.6l1.5,0.9L200,20.1z M190.1,16.3c0,0.3,0.3,0.6,0.6,0.9h0.6l1.5-0.9c-1.5-0.9-3.2-1.5-5-1.7
			l2,1.2L190.1,16.3z M211.6,24.2l2.3,1.5C213.4,24.8,212.8,24.2,211.6,24.2z"/>
		<path id="path7" class="st0" d="M288.2,221.7l1.7-4.7l1.7-4.4c0.6-1.5,1.7-5.2,2.3-7.6c0.1-0.7,0.4-1.4,0.9-2h0.3v-3.2
			c1.5-0.3,1.2-1.7,1.5-2.6l2.3-13.7c1.5-5.9,1.5-12.1,0-18.1c0.3-1.7-0.3-3.4-1.5-4.7v-12.5c-0.9-2.6,0.9-5.5-1.2-7.9l-2.3-9.3
			c0-0.2,0-0.4,0-0.6l-0.6-1.7c-0.2-0.4-0.2-0.8,0-1.2h0.3c0.9,0,0.9-1.5,0.9-2.6c-0.2-1.1-0.6-2.2-1.2-3.2l-0.9-1.2
			c-0.4-0.6-0.6-1.3-0.6-2c0.1-2-0.1-3.9-0.6-5.8V111c-0.6-2-1.2-4.4-1.7-6.4l-0.6-1.5c-0.6-1-1-2.1-1.2-3.2
			c-0.2-0.8-0.5-1.6-0.9-2.3l-1.7-2.9c-0.5-0.4-1.1-0.6-1.7-0.6h-0.3v-0.9h-0.6v-2.3h-0.3v-0.6c0-0.1,0-0.2,0-0.3v-0.6
			c0.3-0.6,0.3-0.9-0.3-1.5c-0.5-0.5-0.9-1.1-1.2-1.7l-0.6-1.7c-0.4-1.3-1.1-2.5-2-3.5c-0.6-0.6-1.1-1.3-1.5-2l-2-4.7
			c-0.4-1-1-2-1.7-2.9l-1.7-2.3c-0.5-0.7-0.9-1.5-1.2-2.3l-0.6-0.9c-0.3-0.4-0.4-1-0.3-1.5c0-0.5-0.2-0.9-0.6-1.2l-1.2-0.9v0.6
			c0.3,0.6,0,0.9-0.3,0.9h-0.6l0.9,2.9l0.9,1.5l2,2.6h-0.3l-0.6-0.6l-0.6-0.6c-0.3-1.8-1.7-3.1-3.5-3.2v-2c-0.9-3.5-4.7-3.8-6.4-6.1
			c-0.6-1.4-1.8-2.3-3.2-2.6l-2.3-2.6c-2.4-3.5-5.5-6.4-9-8.7l-2.3-1.7l-1.2-0.9c-2-2-2.9-5.2-6.4-5.2l-2.3-1.5l-2.6-2
			c-0.9-2.1-2.9-3.6-5.2-3.8c-1.9-1.7-4.2-2.9-6.7-3.5l0.6,0.6l1.5,1.2l3.8,2c2.3,1.2,4.3,2.8,6.1,4.7c1.3,1.3,2.8,2.3,4.4,3.2
			l1.7,1.5c0.3,0.3,0.6,0.6,0.3,0.9h-0.3l-2.6-0.9c-2.1-0.4-4.1-1.2-5.8-2.3l-3.5-1.7l-3.8-2h-0.6c-0.9-0.3-1.2-1.2-2.3-1.5
			l-2.3-0.6l-7.3-1.5c-1-0.5-1.9-1.2-2.6-2c-0.9,0-1.8-0.3-2.6-0.9l-2.9-1.2c-2.8-0.6-5.5-1.3-8.2-2.3l-1.7-0.6l-2.9-0.9h-1.5
			l-0.6-0.9v-0.3h-4.7l-1.7-1.5l-1.2,0.6l-1.2,0.6h-0.6l-2.6-1.5c-1.7,1.7-3.2-0.6-4.7-0.3l-2.9-0.9c-1.1,0.6-2.4,0.6-3.5,0H158
			c-0.9-0.1-1.5-0.9-1.5-1.7l0.9-0.6h1.7c0.2,0.3,0.3,0.6,0.3,0.9c0,0.6,0.6,0.6,1.5,0.6h0.6l-1.2-1.7c-0.8-0.7-1.9-0.9-2.9-0.6
			l-2.9,0.9h-0.3c0.9,0.6,0.6,0.9,0.6,1.5h-4.7l-1.2-0.6l-2.3-1.2h-0.3l-2-0.6h-6.7l1.2-0.6l2.3-0.6h0.9l5-0.9l3.2-0.6l1.7-0.6h-3.2
			c-3.3-0.7-6.6-0.7-9.9,0H135l-9.9-0.3c-4.1,0.3-8.2,0-11.4,3.5c-7.3-1.2-13.7,2-20.1,5.2l-6.4,2.6c-4.1,0.6-7.8,2.4-10.8,5.2h0.9
			l1.5-0.9l2.3-1.5l3.8-1.7l2.9-0.6c1.8-1.2,3.7-2.1,5.8-2.6l2.6-0.9h0.6c0.3,0.6,1.5,0,2,0h0.6c0.3,0,0.3,0.3,0,0.3l-1.7,1.2
			l2.9-0.9l2.3-0.6l-3.8,2l-3.8,1.2c-0.8,0.2-1.4,0.8-1.7,1.5L92.8,25h0.9l1.2-0.6c0.6-0.9,1.5-1.5,2.6-1.7l4.4-1.5h1.5
			c0.2-0.1,0.4,0,0.4,0.1c0.1,0.2,0,0.4-0.1,0.4l0,0c-0.6,0.6-1.7,0.9-2.3,1.5h0.6l-9.3,2.6l-11.1,4.7c-1.9,1.7-4.2,2.9-6.7,3.5
			c-1.5,1.3-3.1,2.4-5,3.2l-2.3,0.6c-0.7,1.5-2.1,2.5-3.8,2.6l-0.9,1.5c-0.9,1.3-2.1,2.4-3.5,3.2H59v-0.3l-0.6,0.6L57.9,46L55,46.6
			h-1.5l-1.2,1.5c-0.3,0.3-0.3,0.6,0,0.6h0.3c-1.7,1.7-2.9,4.1-5.2,5L43.6,58c-1.7,3.5-5.2,4.7-7.6,7.6c-2.3,2.9-4.1,11.4-11.4,12.5
			L24,77.2l-0.6,1.5c-0.3,0.8-0.6,1.6-1.2,2.3c-1.3,2-2.5,4-3.5,6.1c-0.3,0.4-0.4,1-0.3,1.5c0,0.8-0.2,1.6-0.6,2.3l-1.5,3.2h0.6
			c0.9,0,0.9,0.9,1.2,1.7l2.3-3.2c0.4-0.8,1-1.5,1.7-2c1.1-0.6,2.1-1.5,2.6-2.6l0.9-0.9l1.2-1.2l1.7-3.2h0.6c0.3,0.3,0.3,0.3,0.6,0
			l0.6-1.2h1.5v2.3l1.5-1.5c0.3-0.5,0.3-1,0-1.5c0-0.3,0.1-0.6,0.3-0.9c0.4-0.4,0.7-0.9,0.9-1.5c0.3-1.2,1.2-2.2,2.3-2.6l0.9-0.6
			l0.9-0.9c1-0.7,1.8-1.7,2.3-2.9l-0.6-0.9c0-0.3,0.3-0.9,0.6-1.2h1.5l1.7-2.3l1.7-0.9h0.6c-6,6.5-11.3,13.5-16,21h-0.3h0.3
			C24,97.5,18.8,108.5,15,120h-1.5l-1.5-1.2c-0.6-0.6-0.3-2-1.2-2.6h0.3c0.9-1.5-0.3-3.5,0.9-5s0.3-4.1-2.6-3.5s-4.4,1.5-3.8,4.4
			s-2.9,5.2-3.2,8.4s-1.5,1.5-0.9,2.6v11.4c0.3,2.3-1.5,5.2,2.3,6.1l3.8,2.6c0.3,1.5-1.5,4.7,2.6,3.8c-0.5,4.8-0.8,9.7-0.9,14.6
			c0,3.2,0.3,6.4,0.3,9.6V170c-0.3-1.2-0.3-2.3-0.6-3.8l-0.9,0.9v-0.6H6.9c0,1.5-0.3,2.3-1.2,2.6c-0.2,0.4-0.3,1-0.3,1.5
			c0,0.3,0.3,0.9,0.6,0.6c0.3-0.3,1.2,0.6,2,1.2c0.9,0.6-0.6,0.9-1.2,0.6s-0.6,0.3-0.6,0.9v0.9l1.5,4.4c0,0.9-0.3,1.7-0.3,2.6
			c0,0.8,0.2,1.6,0.6,2.3H7.2v-0.9l-2-0.6v-1.7c0.1-0.5,0.1-1,0-1.5c-0.4-1.7-0.7-3.5-0.9-5.2c-0.6-3.4-0.7-6.8-0.6-10.2
			c0-0.5,0.1-1,0.3-1.5v0.6c0.1,0.5,0.2,1,0.3,1.5c0,0.4,0.1,0.8,0.3,1.2c0.3,0.6,0.6,1.2,1.2,1.2s0.3-0.3,0.3-0.6
			c0-0.5-0.1-1-0.3-1.5c-0.5-1.2-0.8-2.5-0.9-3.8c-0.1-0.7-0.4-1.4-0.9-2c-0.4-0.8-0.6-1.7-0.6-2.6v-2.3c0-0.9,0.3-1.7,0.3-2.6
			c0.1-0.4,0-0.8-0.3-1.2H3.1c-2.3,1.2-2,0.6-2.9,4.7v5.2c0,2-0.3,4.1,0,6.1c0,2.2,0.1,4.5,0.6,6.7c0.1,0.5,0.1,1,0,1.5
			c0,0.9,0.1,1.8,0.3,2.6c0.2,1.2,0.3,2.5,0.3,3.8c-0.2,1.7,0,3.4,0.6,5c0.1,0.4,0.1,0.8,0,1.2c-0.1,0.8,0,1.6,0.3,2.3
			c0.3,0.9,0.5,1.7,0.6,2.6c0.3,2.2,0.8,4.3,1.5,6.4c0.3,0.9,0.5,1.9,0.6,2.9c0.1,0.7,0.4,1.4,0.9,2c0.7,1,1.2,2.2,1.5,3.5
			c0.2,1,0.5,2,0.9,2.9l1.2,4.1c0.4,1.5,0.9,3,1.7,4.4c1,1.9,1.8,4,2.3,6.1l0.6,1.5c0.7,0.8,1.2,1.8,1.5,2.9
			c0.2,0.9,0.6,1.6,1.2,2.3c0.3,0.4,0.5,0.9,0.6,1.5c0.3,0.9,0.6,1.2,1.2,0.9h0.3v2.6l1.5,2.9l1.5,2.9l3.2,3.5l1.2,1.2
			c0.9,0.9,2,1.5,2.6,2.9l1.2,0.9c0.5,0.3,0.8,0.9,0.9,1.5l0.6,2c0.4,1,1,1.8,1.7,2.6l1.2,0.6h0.9c0.3,0.1,0.5,0.4,0.4,0.7
			c0,0,0,0.1-0.1,0.1c0,0.5,0,1,0,1.5c0.2,0.6,0.6,1.1,1.2,1.5h0.6c1.2-0.3,2.3,0.6,3.5,2h0.3c0-0.3,0.3-0.3,0-0.6v-0.6
			c0-0.3,0.3-0.6,0.6-0.3c0.6,0.4,0.9,1.1,0.9,1.7v0.6c0.2,1.2,0.6,2.4,1.2,3.5c1.5,0.9,1.5,0.9,1.5,0.3s0-0.6,0.6-0.6h1.2l0.6,0.9
			l2.3,1.5c2,2.3,5.2,2,7.6,3.5l5,5h0.6c0.9,2.1,2.5,3.8,4.7,4.7c0.6,1,1.7,1.7,2.9,1.7c0,1.5,1.7,1.7,3.2,2
			c0.6,0.7,1.4,1.1,2.3,1.2h0.6c1.1,1.2,2.8,1.7,4.4,1.5l2.6,2.3l7,2.6v0.6c1.5,3.2,5,2,7.3,2.9l3.2,1.2h1.2c3.5,0.9,7,2.6,10.8,1.5
			c-0.1,0.4-0.1,0.8,0,1.2c3.2,2,7,0,10.5,1.2c1.6,0.6,3.3,0.7,5,0.3h0.3l2.3,0.6h0.9l2.6,0.6h0.9c0.5-0.3,1-0.3,1.5,0
			c1.4,0.5,2.9,0.9,4.4,1.2h1.7c0.6-0.4,1.4-0.4,2,0H156c1.6,0.2,3.1,0.1,4.7-0.3h2.9l1.5-0.6h9.6l1.7-0.6l1.5-0.9h6.4v1.7h-3.8
			L177,305c-1.2,0.3-2,0-2.9,0.3c-0.9,0.4-1.9,0.6-2.9,0.6l-3.8,0.9h-1.2c-1.5-0.3-3-0.2-4.4,0.3h-5.2c-0.8,0.4-1.8,0.4-2.6,0h-13.1
			c-1.1-0.2-2.3,0.1-3.2,0.9h-0.9l-0.9-0.6v-0.9h-3.5c-1.2-0.5-2.5-0.8-3.8-0.9h-7.3l-2-0.6l-1.5-0.6l-6.1-1.2h-1.5l-1.5-0.6l-6.1-2
			l-4.1-1.2h-6.4c-0.3,0-0.3,0.3-0.3,0.6h0.6c3.8,1.5,7.6,2.6,11.4,4.4h0.9l2.6,0.6l4.1,1.2h3.8l1.7,0.6l2,0.9l5,0.9l3.2,0.6
			l3.2,0.6h2.3l2.3,0.6h9l2.9,0.6h6.7l2.9-0.6h6.4c1.2,0,1.7-0.3,2-0.9h2.9c0.9,0.1,1.7-0.2,2.3-0.9c-0.3,0.3,0,0.3,0.3,0.6h1.2
			v-0.6c0-0.3,0-0.3,0.6-0.6c0.6-0.3,1.7-0.3,2,0.3h1.2l0.9-0.6c0.6,0,0.6,0,0.6,0.3h2l1.5-0.6l2.3-1.2c0.3,0.9,1.2,1.2,3.8,0.6
			l3.8-1.2h3.5c2.6-0.3,5.8,0,7.9-2h0.6l1.2-0.9l3.2-0.9c2.1-0.4,4-1.2,5.8-2.3l1.2-0.6h0.3l2.6-1.7l1.2-0.6l1.5-0.6h1.2
			c1.2-0.3,1.2-0.3,1.5-1.2c0.3-0.9,0-0.3-0.6-0.3H221l1.2-1.5h0.6c0.9-0.3,1.5-0.6,2-0.3h0.6c1.3-0.4,2.3-1.4,2.6-2.6
			c0.9-1.2,3.2-0.6,3.8-2.3l12.5-9c3.2-0.3,4.1-3.2,6.4-5c2.3-1.7,6.7-3.2,8.7-6.4l2.6-1.2h0.3c1.5,0.4,3.1-0.5,3.5-2v1.2
			c2.3-1.2,5.2,0.9,7.6-1.5c2.3-2.3,0-7.9,2.9-11.1l2-1.5c2.2-3.8,3.7-7.9,4.4-12.2l0.6-0.6c0-0.9,0-2,1.2-2.6
			c1.1-0.8,1.3-2.4,0.6-3.5h-0.6c0.2-0.3,0.2-0.6,0-0.9c2,0,2.3-2,3.5-2.9v-4.1c0-0.2,0-0.4,0-0.6
			C288.1,223,288.2,222.3,288.2,221.7L288.2,221.7z"/>
		<path id="path9" class="st0" d="M76.8,27.1l-0.9,0.6l-1.2,0.9l1.5-0.6L76.8,27.1z M94.6,21.3h0.3l0.9-0.6h-1.2L94.6,21.3z
			 M87,24.2l-0.3,0.3H87V24.2z M26.7,76.3l-1.2,1.2h0.6C26.5,77.2,26.8,76.8,26.7,76.3z M35.4,66.1c0.4-0.5,0.7-1.1,0.9-1.7
			c-0.6,0.4-1.1,0.9-1.5,1.5c-0.3,0.3-0.3,0.6,0,0.6L35.4,66.1z M31.9,70.5v-0.6c-0.6,0-1.5,0.9-2.3,0.9v0.6
			C30.5,72.2,30.8,71.9,31.9,70.5z M215.1,26.8h0.3l-1.5-0.9L215.1,26.8z M207.9,22.7c1.5-0.3,2.3,1.2,3.5,1.5h0.3l-0.9-0.6
			l-2.9-1.5l-3.2-1.5l0.9,0.6L207.9,22.7z M187.8,14.9h-0.3l-3.5-0.6h1.5L187.8,14.9z M193.6,16.9l3.8,1.2
			C196.2,17.4,194.9,17,193.6,16.9z M167.4,16.9c0.3-0.4,0.5-0.9,0.6-1.5h-1.5l-0.9,0.9l1.2,0.9L167.4,16.9z M181.4,17.8
			c0,0.1,0,0.2,0,0.3V17.8z M311.8,170.1H311v-1.2h0.9c0.3,0,0.6-0.9,0.3-1.2c-0.3-0.3-0.3-2-0.9-2.3c-0.4-0.1-0.6-0.5-0.6-0.9
			l0.6-1.2c0-0.2,0-0.4,0-0.6h-0.6l-0.6-0.9c-0.3,0.9-0.6,1.7-1.2,2c0,0.2,0,0.4,0,0.6c0,0.3,0,0.6-0.3,0.6h-0.3
			c-0.1,0.3-0.2,0.6-0.3,0.9c-0.6,0.8-1,1.7-1.2,2.6c-0.1,0.4,0,0.9,0.3,1.2h0.3c-0.3,0.7-0.4,1.5-0.3,2.3v1.2c0,0.5-0.1,1-0.3,1.5
			h-0.3l-1.2,2v1.7c0.1,1.1-0.2,2.3-0.9,3.2H304l-0.6-0.6c-0.5-0.7-0.6-1.6-0.3-2.3c0.3-1.6,0.4-3.3,0.3-5c0-0.3-0.3-0.6-0.3-0.6
			c-0.2,0.3-0.3,0.6-0.3,0.9v1.7c0,0.6-0.3,1.7-0.9,2s-0.3,0.6-0.3,0.9l-0.6,1.7l0.9,1.5c-0.6,0.6-1.2,0.3-1.5-0.3v2.9h0.9v1.2
			c-0.5,1.3-0.8,2.7-0.9,4.1c0,0.4,0,0.8,0,1.2c0,1.3-0.2,2.6-0.6,3.8c-0.1,0.6-0.1,1.2,0,1.7l-0.9,2c-0.2,0.7-0.5,1.4-0.9,2
			l-0.9,1.7l-2.6,7.9c0.9,2.6-1.2,4.4-2.3,6.1c0.3,2.5-0.5,5-2.3,6.7v1.2c0,0.3,0.3,0.6,0.9,0.3l1.2-0.9l0.6-1.2h0.6
			c0.3,0.3,0.6,0.3,1.2-0.3h0.6c0.5,0.4,0.6,1.2,0.3,1.7c-0.2,0.8-0.3,1.5-0.3,2.3c0,0.3,0,0.6,0.3,0.6h0.6c0.3,0.3,0.6,0,0.9-0.9
			l0.6-1.5h0.9c1.2-0.3,1.2-0.3,1.7-1.7l1.5-2.6l0.9-1.7l1.2-2.9c0-1,0.3-2.1,0.9-2.9c0.4-0.5,0.5-1.2,0.3-1.7c0-0.6,0-0.9,0.6-1.7
			l0.9-1.2l1.5-2.9c0.1-0.9,0.3-1.8,0.6-2.6c0.6-1.2,0.9-2.5,0.9-3.8c0.2-0.9,0.5-1.8,0.9-2.6v-1.5c-0.3-0.6-0.3-0.6,0-1.7
			s0.3-0.6,0.6-0.6c0.2,0.2,0.3,0.6,0.3,0.9l0.6-1.5c0.4-0.8,0.6-1.7,0.6-2.6v-0.9c0-0.3,0-0.9-0.3-0.9v1.2c-0.6,0-0.9,0.6-1.5,0.9
			c0.1-0.8,0.2-1.5,0.3-2.3l1.2-0.6c0.5-0.5,0.7-1.1,0.6-1.7c0-0.3,0-0.6,0-0.9c0.4-1.3,0.6-2.7,0.6-4.1v-0.6l0.9-2.9h0.3
			c0.3-0.2,0.4-0.6,0.3-0.9h-0.3c-0.2-0.8,0-1.7,0.6-2.3C314.1,171.7,313.1,170.6,311.8,170.1L311.8,170.1z M26.4,89.7
			c0.1-0.2,0.1-0.4,0-0.6l-0.6-0.6l-0.6,0.6l-0.9,1.7c0,0.9-0.9,1.7-0.9,2.6V94h0.3L26.4,89.7z M306.9,161.9h0.3
			c0.6-1.1,0.8-2.3,0.6-3.5c-0.1-0.6,0.1-1.1,0.6-1.5h0.3v-0.6l-0.6-0.6h-0.3c-0.3,0.3-0.6,0.9-0.9,0.9s-0.3,0.3-0.3,0.9v0.9
			C306.4,159.6,306.5,160.8,306.9,161.9L306.9,161.9z M38.3,262.4c-0.3,0,0,0.6,0,0.9l2.3,2.3H41c-0.6-0.9-0.9-1.7-0.6-2
			c-0.5,0-1-0.2-1.5-0.6L38.3,262.4z M309.5,159.3h0.3c0.1-0.6,0.1-1.2,0-1.7c-0.9,0.3-0.9,0.3-0.9,1.7S309.2,159.6,309.5,159.3
			L309.5,159.3z"/>
		<path id="path11" class="st0" d="M310.7,180.6c0.3-0.4,0.4-1,0.3-1.5c0-0.3-0.3-0.6-0.3-0.3h-0.6v0.6
			C310.1,180.6,310.4,180.9,310.7,180.6L310.7,180.6z M311,156.7h-0.3v1.7C310.9,157.9,311,157.3,311,156.7z M49.7,269.7h-0.6v0.6
			l0.6,0.6h0.6v-0.6L49.7,269.7z M301.9,172.7c0-0.3,0-0.3-0.3-0.3L301.9,172.7z M28.7,251.9l1.5,1.5l-1.2-1.7L28.7,251.9z"/>
		<polygon id="circle13" class="st0" points="30.4,253.6 30.4,253.6 30.4,253.6 		"/>
		<path id="path15" class="st0" d="M28.1,87.7h-0.3v0.6v-0.6H28.1z M270.5,68.4l-0.6-0.9h-0.3L270.5,68.4z M16.8,94.4
			c0.2-0.1,0.3-0.4,0.3-0.6v0.6H16.8z M303.7,176.5v0.3V176.5z M47.7,269.4h-0.3c0.3,0.3,0.6,0,0.3-0.3V269.4z M48.2,271.5h0.3
			l-0.3-0.3V271.5z"/>
	</g>
</g>
<text transform="matrix(1 0 0 1 46.4952 207.334)" class="st1 st2 st3">MT</text>
</svg>
